HIERARCHY
ROOT Hips
{
	OFFSET 0.00000 0.00000 0.00000
	CHANNELS 6 Xposition Yposition Zposition Zrotation Yrotation Xrotation 
	JOINT LHipJoint
	{
		OFFSET 0 0 0
		CHANNELS 3 Zrotation Yrotation Xrotation
		JOINT LeftUpLeg
		{
			OFFSET 1.55020 -1.87941 0.79896
			CHANNELS 3 Zrotation Yrotation Xrotation
			JOINT LeftLeg
			{
				OFFSET 2.65269 -7.28822 0.00000
				CHANNELS 3 Zrotation Yrotation Xrotation
				JOINT LeftFoot
				{
					OFFSET 2.61200 -7.17641 0.00000
					CHANNELS 3 Zrotation Yrotation Xrotation
					JOINT LeftToeBase
					{
						OFFSET 0.09338 -0.25656 1.92461
						CHANNELS 3 Zrotation Yrotation Xrotation
						End Site
						{
							OFFSET 0.00000 -0.00000 0.98480
						}
					}
				}
			}
		}
	}
	JOINT RHipJoint
	{
		OFFSET 0 0 0
		CHANNELS 3 Zrotation Yrotation Xrotation
		JOINT RightUpLeg
		{
			OFFSET -1.56866 -1.87941 0.79895
			CHANNELS 3 Zrotation Yrotation Xrotation
			JOINT RightLeg
			{
				OFFSET -2.60199 -7.14892 0.00000
				CHANNELS 3 Zrotation Yrotation Xrotation
				JOINT RightFoot
				{
					OFFSET -2.62841 -7.22151 0.00000
					CHANNELS 3 Zrotation Yrotation Xrotation
					JOINT RightToeBase
					{
						OFFSET -0.19532 -0.53663 1.93132
						CHANNELS 3 Zrotation Yrotation Xrotation
						End Site
						{
							OFFSET -0.00000 -0.00000 1.00896
						}
					}
				}
			}
		}
	}
	JOINT LowerBack
	{
		OFFSET 0 0 0
		CHANNELS 3 Zrotation Yrotation Xrotation
		JOINT Spine
		{
			OFFSET 0.06381 2.07806 -0.22112
			CHANNELS 3 Zrotation Yrotation Xrotation
			JOINT Spine1
			{
				OFFSET -0.02881 2.08890 0.01825
				CHANNELS 3 Zrotation Yrotation Xrotation
				JOINT Neck
				{
					OFFSET 0 0 0
					CHANNELS 3 Zrotation Yrotation Xrotation
					JOINT Neck1
					{
						OFFSET 0.02418 1.74325 -0.02023
						CHANNELS 3 Zrotation Yrotation Xrotation
						JOINT Head
						{
							OFFSET -0.01704 1.71677 0.04090
							CHANNELS 3 Zrotation Yrotation Xrotation
							End Site
							{
								OFFSET -0.00946 1.78238 0.01684
							}
						}
					}
				}
				JOINT LeftShoulder
				{
					OFFSET 0 0 0
					CHANNELS 3 Zrotation Yrotation Xrotation
					JOINT LeftArm
					{
						OFFSET 3.39783 1.34157 0.16610
						CHANNELS 3 Zrotation Yrotation Xrotation
						JOINT LeftForeArm
						{
							OFFSET 5.15218 -0.00000 0.00000
							CHANNELS 3 Zrotation Yrotation Xrotation
							JOINT LeftHand
							{
								OFFSET 3.49459 -0.00000 0.00000
								CHANNELS 3 Zrotation Yrotation Xrotation
								JOINT LeftFingerBase
								{
									OFFSET 0 0 0
									CHANNELS 3 Zrotation Yrotation Xrotation
									JOINT LeftHandIndex1
									{
										OFFSET 0.51247 -0.00000 0.00000
										CHANNELS 3 Zrotation Yrotation Xrotation
										End Site
										{
											OFFSET 0.41316 -0.00000 0.00000
										}
									}
								}
								JOINT LThumb
								{
									OFFSET 0 0 0
									CHANNELS 3 Zrotation Yrotation Xrotation
									End Site
									{
										OFFSET 0.41947 -0.00000 0.41947
									}
								}
							}
						}
					}
				}
				JOINT RightShoulder
				{
					OFFSET 0 0 0
					CHANNELS 3 Zrotation Yrotation Xrotation
					JOINT RightArm
					{
						OFFSET -3.26224 1.05509 0.01188
						CHANNELS 3 Zrotation Yrotation Xrotation
						JOINT RightForeArm
						{
							OFFSET -5.44344 -0.00000 0.00000
							CHANNELS 3 Zrotation Yrotation Xrotation
							JOINT RightHand
							{
								OFFSET -3.58403 -0.00000 0.00000
								CHANNELS 3 Zrotation Yrotation Xrotation
								JOINT RightFingerBase
								{
									OFFSET 0 0 0
									CHANNELS 3 Zrotation Yrotation Xrotation
									JOINT RightHandIndex1
									{
										OFFSET -0.34249 -0.00000 0.00000
										CHANNELS 3 Zrotation Yrotation Xrotation
										End Site
										{
											OFFSET -0.27612 -0.00000 0.00000
										}
									}
								}
								JOINT RThumb
								{
									OFFSET 0 0 0
									CHANNELS 3 Zrotation Yrotation Xrotation
									End Site
									{
										OFFSET -0.28034 -0.00000 0.28034
									}
								}
							}
						}
					}
				}
			}
		}
	}
}
MOTION
Frames: 6
Frame Time: .0083333
-14.6017 18.0477 2.4749 -226.6190 -104.4460 229.9610 0.0000 0.0000 0.0000 -21.4091 0.6052 -33.0177 5.3492 13.7666 42.3104 -0.1836 7.9876 -5.6327 0.7107 -5.3880 -15.0185 0.0000 0.0000 0.0000 34.7103 -11.2707 -18.4549 -7.2415 -15.5319 49.7819 0.6803 14.7837 8.9831 -0.7133 5.3974 -15.0455 1.2693 0.1168 12.8806 -1.7063 0.1349 2.7593 -2.5230 0.0022 -4.3117 -1.9513 -5.0138 2.4172 3.9018 -7.1985 10.0827 1.4481 -3.5996 3.0538 0.0000 0.0000 0.0000 -58.4207 3.8123 -19.6710 14.6439 -23.6477 -3.0817 -0.0000 -0.0000 21.9325 37.4070 20.5698 15.0398 -7.1250 0.0000 -0.0000 9.6570 55.0076 2.3898 0.0000 0.0000 0.0000 82.5791 0.0124 20.4473 -16.3396 25.9790 -3.7935 0.0000 0.0000 42.2073 -44.3776 -34.4547 28.9686 7.1250 -0.0000 -0.0000 -20.4867 -72.9272 13.7253
-14.4521 18.0011 2.5010 -227.5490 -104.1680 231.2490 0.0000 0.0000 0.0000 -23.2450 3.1109 -34.5952 5.1787 13.5823 41.5892 -0.2171 9.0779 -7.4192 0.4731 -4.4111 -12.2362 0.0000 0.0000 0.0000 36.0375 -12.4200 -17.6339 -6.2838 -14.6979 46.1105 0.4122 12.8411 11.2750 -0.7492 5.5287 -15.4228 1.6059 -0.1940 12.7497 -1.5389 -0.2154 2.5841 -2.4811 -0.1730 -4.4425 -2.8632 -5.8827 3.0105 3.8384 -8.2993 8.9769 1.5866 -4.1828 2.6547 -0.0000 -0.0000 0.0000 -61.3778 4.7324 -16.2215 15.1929 -24.4142 -3.3053 -0.0000 -0.0000 17.2398 37.4960 20.2731 14.8870 -7.1250 0.0000 -0.0000 9.7645 54.6795 2.3385 -0.0000 -0.0000 0.0000 83.4596 0.9539 20.5575 -16.2119 25.8071 -3.7377 0.0000 0.0000 41.6106 -44.0471 -34.1229 28.4849 7.1250 -0.0000 -0.0000 -19.7421 -72.4581 13.0165
-14.2967 17.9492 2.5314 -228.3020 -103.8370 232.3490 0.0000 0.0000 0.0000 -24.4247 4.3667 -35.9031 5.0630 13.4544 41.0941 -0.2242 9.1076 -7.1934 1.0429 -6.4947 -18.2266 0.0000 0.0000 0.0000 36.6643 -11.8551 -16.0382 -5.3618 -13.7801 42.3634 0.2639 12.0228 12.8326 -0.0375 1.2501 -3.4372 1.9818 -0.4989 12.6534 -1.3532 -0.5533 2.4405 -2.4440 -0.3432 -4.5601 -3.9059 -6.8211 3.9898 3.8861 -9.5055 7.2785 1.8138 -4.8163 2.0298 -0.0000 -0.0000 0.0000 -64.4681 5.3779 -12.6150 15.7951 -25.2421 -3.5581 -0.0000 -0.0000 12.4837 37.1714 19.3922 14.1314 -7.1250 0.0000 -0.0000 9.4173 53.5685 1.9981 -0.0000 -0.0000 0.0000 84.1810 1.7684 20.9834 -16.2602 25.8722 -3.7588 0.0000 0.0000 41.0059 -44.0034 -33.7706 28.2296 7.1250 -0.0000 -0.0000 -19.6107 -72.0552 12.7572
-14.1287 17.8576 2.5649 -228.4360 -103.4310 232.8960 0.0000 0.0000 0.0000 -25.0912 4.3139 -36.6742 5.0105 13.3956 40.8679 -0.1238 7.8404 -7.9421 0.7470 -5.5206 -15.3996 0.0000 0.0000 0.0000 36.8845 -10.7530 -13.9001 -4.6431 -12.9703 39.2574 0.6646 14.2623 5.4195 -0.2376 3.1373 -8.6613 2.4060 -0.7826 12.5396 -1.1915 -0.8599 2.3142 -2.4644 -0.4992 -4.6510 -4.9030 -7.7840 4.9172 3.9267 -10.7666 5.3765 2.0520 -5.4633 1.3753 -0.0000 0.0000 0.0000 -67.6295 5.6047 -8.9333 16.3833 -26.0376 -3.8126 -0.0000 -0.0000 7.9108 36.8204 18.1573 13.1322 -7.1250 0.0000 -0.0000 9.0526 52.0348 1.5786 -0.0000 0.0000 0.0000 84.6880 2.7209 21.6459 -16.3154 25.9464 -3.7829 0.0000 0.0000 40.6081 -44.0046 -33.7293 28.2049 7.1250 -0.0000 -0.0000 -19.6080 -72.0098 12.7361
-13.9481 17.7358 2.5952 -226.9890 -102.8760 231.7540 0.0000 0.0000 0.0000 -25.3741 3.0744 -37.0308 5.0805 13.4739 41.1694 0.0107 5.7772 -8.5440 0.3670 -3.8912 -10.7708 0.0000 0.0000 0.0000 36.6114 -9.5480 -11.9890 -4.0911 -12.2806 36.7322 0.6035 16.7689 -4.3238 -2.7916 10.3498 -30.1170 2.5346 -1.1024 12.6569 -1.0686 -1.2541 2.2475 -2.3411 -0.6963 -4.8097 -5.8959 -8.6511 5.6292 4.0670 -11.9328 3.5539 2.3320 -6.0500 0.8051 -0.0000 0.0000 0.0000 -70.8765 5.5976 -5.2684 17.0784 -26.9610 -4.1228 -0.0000 -0.0000 3.9441 36.1294 16.9508 12.0151 -7.1250 0.0000 -0.0000 8.3384 50.4694 1.1308 -0.0000 0.0000 0.0000 84.9259 3.8594 22.7256 -16.3305 25.9667 -3.7895 0.0000 0.0000 40.3242 -43.8500 -33.9345 28.2035 7.1250 -0.0000 -0.0000 -19.3127 -72.1874 12.6144
-13.7512 17.5791 2.6138 -225.1110 -102.3300 229.9160 0.0000 0.0000 0.0000 -25.5204 1.8932 -37.5172 5.2672 13.6785 41.9646 0.0864 3.4677 -7.9167 0.3145 -3.6049 -9.9677 0.0000 0.0000 0.0000 36.0809 -7.8082 -10.7068 -3.7349 -11.7990 35.0247 0.3553 16.5706 -7.6519 -1.3774 7.4268 -20.9862 2.5327 -1.4267 13.1392 -0.9416 -1.6701 2.3454 -2.1283 -0.9033 -4.9934 -6.7178 -9.4829 6.0975 4.2996 -13.0605 1.7731 2.6158 -6.6056 0.2948 -0.0000 -0.0000 0.0000 -73.9916 5.2161 -1.6666 17.8661 -27.9854 -4.4862 -0.0000 -0.0000 1.3350 34.5051 16.1554 10.8280 -7.1250 0.0000 -0.0000 6.6934 49.2309 0.7012 -0.0000 -0.0000 0.0000 85.0222 5.3364 23.9589 -16.1698 25.7503 -3.7194 0.0000 0.0000 40.5724 -43.6560 -34.1352 28.1655 7.1250 -0.0000 -0.0000 -18.9304 -72.3471 12.4249
